<svg xmlns="http://www.w3.org/2000/svg" xmlns:xlink="http://www.w3.org/1999/xlink" width="500" zoomAndPan="magnify" viewBox="0 0 375 374.999991" height="500" preserveAspectRatio="xMidYMid meet" version="1.0"><defs><clipPath id="e45fdfd136"><path d="M 168.53125 170.855469 L 206.78125 170.855469 L 206.78125 204.238281 L 168.53125 204.238281 Z M 168.53125 170.855469 " clip-rule="nonzero"/></clipPath></defs><g clip-path="url(#e45fdfd136)"><path fill="#38b6ff" d="M 168.53125 170.859375 C 177.210938 173.609375 181.941406 178.453125 182.859375 185.261719 C 181.019531 186.828125 179.445312 188.792969 178.65625 191.671875 C 177.734375 189.84375 176.945312 187.351562 176.550781 184.472656 C 176.816406 187.746094 177.472656 190.496094 178.390625 192.589844 C 178.128906 193.503906 177.996094 194.292969 177.996094 195.335938 C 167.085938 190.496094 174.710938 179.105469 168.53125 170.859375 Z M 206.78125 174.394531 C 205.996094 191.019531 197.453125 199.265625 181.019531 199.136719 C 180.363281 200.703125 180.097656 202.410156 180.363281 204.238281 C 179.445312 204.109375 179.050781 203.976562 179.050781 203.976562 C 178.257812 196.253906 186.015625 191.671875 192.324219 188.925781 C 185.09375 191.410156 180.625 194.683594 178.785156 198.609375 C 178.65625 178.1875 197.714844 185.785156 206.78125 174.394531 " fill-opacity="1" fill-rule="nonzero"/></g></svg>